REM DIRINDEX 1\2,1\3,1\4
REM DIRNAME folder01,folder02,folder03,folder04
TITLE ""
FILE "Disc2Track04.mp3" MP3
  TRACK 01 AUDIO
    TITLE "0:"
    INDEX 01 00:00:00
  TRACK 02 AUDIO
    TITLE "4:cjc085_1244"
    INDEX 01 00:04:74
  TRACK 03 AUDIO
    TITLE "0:"
    INDEX 01 00:07:72
  TRACK 04 AUDIO
    TITLE "4:cjc085_1245"
    INDEX 01 00:09:04
  TRACK 05 AUDIO
    TITLE "2:cjc085_1246"
    INDEX 01 00:11:05
  TRACK 06 AUDIO
    TITLE "0:"
    INDEX 01 00:15:66
  TRACK 07 AUDIO
    TITLE "3:cjc085_1247"
    INDEX 01 00:16:42
  TRACK 08 AUDIO
    TITLE "0:"
    INDEX 01 00:20:49
  TRACK 09 AUDIO
    TITLE "4:cjc085_1248"
    INDEX 01 00:22:42
  TRACK 10 AUDIO
    TITLE "2:cjc085_1249"
    INDEX 01 00:24:51
  TRACK 11 AUDIO
    TITLE "0:"
    INDEX 01 00:30:03
  TRACK 12 AUDIO
    TITLE "3:cjc085_1250"
    INDEX 01 00:30:30
  TRACK 13 AUDIO
    TITLE "0:"
    INDEX 01 00:35:06
  TRACK 14 AUDIO
    TITLE "4:cjc085_1251"
    INDEX 01 00:35:63
  TRACK 15 AUDIO
    TITLE "2:cjc085_1252"
    INDEX 01 00:37:69
  TRACK 16 AUDIO
    TITLE "0:"
    INDEX 01 00:40:42
  TRACK 17 AUDIO
    TITLE "3:cjc085_1253"
    INDEX 01 00:40:72
  TRACK 18 AUDIO
    TITLE "0:"
    INDEX 01 00:44:09
  TRACK 19 AUDIO
    TITLE "4:cjc085_1254"
    INDEX 01 00:45:20
  TRACK 20 AUDIO
    TITLE "2:cjc085_1255"
    INDEX 01 00:47:30
  TRACK 21 AUDIO
    TITLE "0:"
    INDEX 01 00:52:18
  TRACK 22 AUDIO
    TITLE "3:cjc085_1256"
    INDEX 01 00:52:39
  TRACK 23 AUDIO
    TITLE "0:"
    INDEX 01 00:56:72
  TRACK 24 AUDIO
    TITLE "4:cjc085_1257"
    INDEX 01 00:58:69
  TRACK 25 AUDIO
    TITLE "2:cjc085_1258"
    INDEX 01 01:01:21
  TRACK 26 AUDIO
    TITLE "0:"
    INDEX 01 01:04:74
  TRACK 27 AUDIO
    TITLE "3:cjc085_1259"
    INDEX 01 01:05:46
  TRACK 28 AUDIO
    TITLE "0:"
    INDEX 01 01:09:10
  TRACK 29 AUDIO
    TITLE "4:cjc085_1260"
    INDEX 01 01:09:46
  TRACK 30 AUDIO
    TITLE "2:cjc085_1261"
    INDEX 01 01:12:07
  TRACK 31 AUDIO
    TITLE "0:"
    INDEX 01 01:15:03
  TRACK 32 AUDIO
    TITLE "3:cjc085_1262"
    INDEX 01 01:15:64
  TRACK 33 AUDIO
    TITLE "0:"
    INDEX 01 01:19:64
  TRACK 34 AUDIO
    TITLE "4:cjc085_1263"
    INDEX 01 01:20:49
  TRACK 35 AUDIO
    TITLE "2:cjc085_1264"
    INDEX 01 01:22:66
  TRACK 36 AUDIO
    TITLE "0:"
    INDEX 01 01:25:55
  TRACK 37 AUDIO
    TITLE "3:cjc085_1265"
    INDEX 01 01:26:17
  TRACK 38 AUDIO
    TITLE "0:"
    INDEX 01 01:28:71
  TRACK 39 AUDIO
    TITLE "4:cjc085_1266"
    INDEX 01 01:29:52
  TRACK 40 AUDIO
    TITLE "2:cjc085_1267"
    INDEX 01 01:32:12
  TRACK 41 AUDIO
    TITLE "0:"
    INDEX 01 01:37:05
  TRACK 42 AUDIO
    TITLE "3:cjc085_1268"
    INDEX 01 01:37:56
  TRACK 43 AUDIO
    TITLE "0:"
    INDEX 01 01:42:12
  TRACK 44 AUDIO
    TITLE "4:cjc085_1269"
    INDEX 01 01:42:61
  TRACK 45 AUDIO
    TITLE "2:cjc085_1270"
    INDEX 01 01:45:24
  TRACK 46 AUDIO
    TITLE "0:"
    INDEX 01 01:50:11
  TRACK 47 AUDIO
    TITLE "3:cjc085_1271"
    INDEX 01 01:50:35
  TRACK 48 AUDIO
    TITLE "0:"
    INDEX 01 01:54:46
  TRACK 49 AUDIO
    TITLE "4:cjc085_1272"
    INDEX 01 01:55:40
  TRACK 50 AUDIO
    TITLE "2:cjc085_1273"
    INDEX 01 01:57:58
  TRACK 51 AUDIO
    TITLE "0:"
    INDEX 01 02:02:56
  TRACK 52 AUDIO
    TITLE "3:cjc085_1274"
    INDEX 01 02:03:18
  TRACK 53 AUDIO
    TITLE "0:"
    INDEX 01 02:07:29
  TRACK 54 AUDIO
    TITLE "4:cjc085_1275"
    INDEX 01 02:08:41
  TRACK 55 AUDIO
    TITLE "2:cjc085_1276"
    INDEX 01 02:11:04
  TRACK 56 AUDIO
    TITLE "0:"
    INDEX 01 02:15:60
  TRACK 57 AUDIO
    TITLE "3:cjc085_1277"
    INDEX 01 02:16:23
  TRACK 58 AUDIO
    TITLE "0:"
    INDEX 01 02:20:30
  TRACK 59 AUDIO
    TITLE "4:cjc085_1278"
    INDEX 01 02:21:10
  TRACK 60 AUDIO
    TITLE "2:cjc085_1279"
    INDEX 01 02:23:56
  TRACK 61 AUDIO
    TITLE "0:"
    INDEX 01 02:28:65
  TRACK 62 AUDIO
    TITLE "3:cjc085_1280"
    INDEX 01 02:29:35
  TRACK 63 AUDIO
    TITLE "0:"
    INDEX 01 02:32:74
  TRACK 64 AUDIO
    TITLE "4:cjc085_1281"
    INDEX 01 02:33:50
  TRACK 65 AUDIO
    TITLE "2:cjc085_1282"
    INDEX 01 02:36:17
  TRACK 66 AUDIO
    TITLE "0:"
    INDEX 01 02:40:74
  TRACK 67 AUDIO
    TITLE "3:cjc085_1283"
    INDEX 01 02:41:38
  TRACK 68 AUDIO
    TITLE "0:"
    INDEX 01 02:45:16
  TRACK 69 AUDIO
    TITLE "4:cjc085_1284"
    INDEX 01 02:45:69
  TRACK 70 AUDIO
    TITLE "2:cjc085_1285"
    INDEX 01 02:48:21
  TRACK 71 AUDIO
    TITLE "0:"
    INDEX 01 02:51:21
  TRACK 72 AUDIO
    TITLE "3:cjc085_1286"
    INDEX 01 02:51:44
  TRACK 73 AUDIO
    TITLE "0:"
    INDEX 01 02:54:17
  TRACK 74 AUDIO
    TITLE "4:cjc085_1287"
    INDEX 01 02:55:17
  TRACK 75 AUDIO
    TITLE "2:cjc085_1288"
    INDEX 01 02:57:65
  TRACK 76 AUDIO
    TITLE "0:"
    INDEX 01 03:02:07
  TRACK 77 AUDIO
    TITLE "3:cjc085_1289"
    INDEX 01 03:02:50
  TRACK 78 AUDIO
    TITLE "0:"
    INDEX 01 03:06:30
  TRACK 79 AUDIO
    TITLE "4:cjc085_1290"
    INDEX 01 03:07:51
  TRACK 80 AUDIO
    TITLE "2:cjc085_1291"
    INDEX 01 03:10:06
  TRACK 81 AUDIO
    TITLE "0:"
    INDEX 01 03:14:43
  TRACK 82 AUDIO
    TITLE "3:cjc085_1292"
    INDEX 01 03:15:25
  TRACK 83 AUDIO
    TITLE "0:"
    INDEX 01 03:18:67
  TRACK 84 AUDIO
    TITLE "4:cjc085_1293"
    INDEX 01 03:19:47
  TRACK 85 AUDIO
    TITLE "2:cjc085_1294"
    INDEX 01 03:22:25
  TRACK 86 AUDIO
    TITLE "0:"
    INDEX 01 03:26:39
  TRACK 87 AUDIO
    TITLE "3:cjc085_1295"
    INDEX 01 03:27:21
  TRACK 88 AUDIO
    TITLE "0:"
    INDEX 01 03:31:40
  TRACK 89 AUDIO
    TITLE "4:cjc085_1296"
    INDEX 01 03:32:22
  TRACK 90 AUDIO
    TITLE "2:cjc085_1297"
    INDEX 01 03:34:56
  TRACK 91 AUDIO
    TITLE "0:"
    INDEX 01 03:38:52
  TRACK 92 AUDIO
    TITLE "3:cjc085_1298"
    INDEX 01 03:39:22
  TRACK 93 AUDIO
    TITLE "0:"
    INDEX 01 03:43:65
  TRACK 94 AUDIO
    TITLE "4:cjc085_1299"
    INDEX 01 03:44:43
  TRACK 95 AUDIO
    TITLE "2:cjc085_1300"
    INDEX 01 03:47:08
  TRACK 96 AUDIO
    TITLE "0:"
    INDEX 01 03:50:30
  TRACK 97 AUDIO
    TITLE "3:cjc085_1301"
    INDEX 01 03:50:45
  TRACK 98 AUDIO
    TITLE "0:"
    INDEX 01 03:54:08
  TRACK 99 AUDIO
    TITLE "4:cjc085_1302"
    INDEX 01 03:54:59
  TRACK 100 AUDIO
    TITLE "2:cjc085_1303"
    INDEX 01 03:57:26
  TRACK 101 AUDIO
    TITLE "0:"
    INDEX 01 04:00:55
  TRACK 102 AUDIO
    TITLE "3:cjc085_1304"
    INDEX 01 04:01:16
  TRACK 103 AUDIO
    TITLE "0:"
    INDEX 01 04:04:55
  TRACK 104 AUDIO
    TITLE "4:cjc085_1305"
    INDEX 01 04:05:43
  TRACK 105 AUDIO
    TITLE "2:cjc085_1306"
    INDEX 01 04:07:67
  TRACK 106 AUDIO
    TITLE "0:"
    INDEX 01 04:12:06
  TRACK 107 AUDIO
    TITLE "3:cjc085_1307"
    INDEX 01 04:12:31
  TRACK 108 AUDIO
    TITLE "0:"
    INDEX 01 04:16:35
  TRACK 109 AUDIO
    TITLE "4:cjc085_1308"
    INDEX 01 04:17:19
  TRACK 110 AUDIO
    TITLE "2:cjc085_1309"
    INDEX 01 04:19:68
  TRACK 111 AUDIO
    TITLE "0:"
    INDEX 01 04:25:61
  TRACK 112 AUDIO
    TITLE "3:cjc085_1310"
    INDEX 01 04:25:69
  TRACK 113 AUDIO
    TITLE "0:"
    INDEX 01 04:30:23
  TRACK 114 AUDIO
    TITLE "4:cjc085_1311"
    INDEX 01 04:30:68
  TRACK 115 AUDIO
    TITLE "2:cjc085_1312"
    INDEX 01 04:33:14
  TRACK 116 AUDIO
    TITLE "0:"
    INDEX 01 04:36:61
  TRACK 117 AUDIO
    TITLE "3:cjc085_1313"
    INDEX 01 04:37:08
  TRACK 118 AUDIO
    TITLE "0:"
    INDEX 01 04:40:33
  TRACK 119 AUDIO
    TITLE "4:cjc085_1314"
    INDEX 01 04:41:33
  TRACK 120 AUDIO
    TITLE "2:cjc085_1315"
    INDEX 01 04:44:02
  TRACK 121 AUDIO
    TITLE "0:"
    INDEX 01 04:47:33
  TRACK 122 AUDIO
    TITLE "3:cjc085_1316"
    INDEX 01 04:47:63
  TRACK 123 AUDIO
    TITLE "0:"
    INDEX 01 04:51:66
  TRACK 124 AUDIO
    TITLE "4:cjc085_1317"
    INDEX 01 04:52:46
  TRACK 125 AUDIO
    TITLE "2:cjc085_1318"
    INDEX 01 04:55:11
  TRACK 126 AUDIO
    TITLE "0:"
    INDEX 01 04:59:01
  TRACK 127 AUDIO
    TITLE "3:cjc085_1319"
    INDEX 01 04:59:13
  TRACK 128 AUDIO
    TITLE "0:"
    INDEX 01 05:03:21
  TRACK 129 AUDIO
    TITLE "4:cjc085_1320"
    INDEX 01 05:03:42
  TRACK 130 AUDIO
    TITLE "2:cjc085_1321"
    INDEX 01 05:06:03
  TRACK 131 AUDIO
    TITLE "0:"
    INDEX 01 05:11:57
  TRACK 132 AUDIO
    TITLE "3:cjc085_1322"
    INDEX 01 05:12:35
  TRACK 133 AUDIO
    TITLE "0:"
    INDEX 01 05:16:57
  TRACK 134 AUDIO
    TITLE "4:cjc085_1323"
    INDEX 01 05:17:33
  TRACK 135 AUDIO
    TITLE "2:cjc085_1324"
    INDEX 01 05:20:43
  TRACK 136 AUDIO
    TITLE "0:"
    INDEX 01 05:25:10
  TRACK 137 AUDIO
    TITLE "3:cjc085_1325"
    INDEX 01 05:25:38
  TRACK 138 AUDIO
    TITLE "0:"
    INDEX 01 05:28:44
  TRACK 139 AUDIO
    TITLE "4:cjc085_1326"
    INDEX 01 05:29:55
  TRACK 140 AUDIO
    TITLE "2:cjc085_1327"
    INDEX 01 05:32:32
  TRACK 141 AUDIO
    TITLE "0:"
    INDEX 01 05:35:74
  TRACK 142 AUDIO
    TITLE "3:cjc085_1328"
    INDEX 01 05:36:08
  TRACK 143 AUDIO
    TITLE "0:"
    INDEX 01 05:39:40
  TRACK 144 AUDIO
    TITLE "4:cjc085_1329"
    INDEX 01 05:41:25
  TRACK 145 AUDIO
    TITLE "2:cjc085_1330"
    INDEX 01 05:43:55
  TRACK 146 AUDIO
    TITLE "0:"
    INDEX 01 05:48:62
  TRACK 147 AUDIO
    TITLE "3:cjc085_1331"
    INDEX 01 05:49:25
  TRACK 148 AUDIO
    TITLE "0:"
    INDEX 01 05:54:14
  TRACK 149 AUDIO
    TITLE "4:cjc085_1332"
    INDEX 01 05:54:61
  TRACK 150 AUDIO
    TITLE "2:cjc085_1333"
    INDEX 01 05:57:44
  TRACK 151 AUDIO
    TITLE "0:"
    INDEX 01 06:02:27
  TRACK 152 AUDIO
    TITLE "3:cjc085_1334"
    INDEX 01 06:02:53
  TRACK 153 AUDIO
    TITLE "0:"
    INDEX 01 06:07:42
  TRACK 154 AUDIO
    TITLE "4:cjc085_1335"
    INDEX 01 06:08:69
  TRACK 155 AUDIO
    TITLE "2:cjc085_1336"
    INDEX 01 06:11:52
  TRACK 156 AUDIO
    TITLE "0:"
    INDEX 01 06:16:67
  TRACK 157 AUDIO
    TITLE "3:cjc085_1337"
    INDEX 01 06:17:07
  TRACK 158 AUDIO
    TITLE "0:"
    INDEX 01 06:20:68
  TRACK 159 AUDIO
    TITLE "4:cjc085_1338"
    INDEX 01 06:21:36
  TRACK 160 AUDIO
    TITLE "2:cjc085_1339"
    INDEX 01 06:24:35
  TRACK 161 AUDIO
    TITLE "0:"
    INDEX 01 06:29:18
  TRACK 162 AUDIO
    TITLE "3:cjc085_1340"
    INDEX 01 06:30:06
  TRACK 163 AUDIO
    TITLE "0:"
    INDEX 01 06:33:55
  TRACK 164 AUDIO
    TITLE "4:cjc085_1341"
    INDEX 01 06:33:57
  TRACK 165 AUDIO
    TITLE "2:cjc085_1342"
    INDEX 01 06:36:63
  TRACK 166 AUDIO
    TITLE "0:"
    INDEX 01 06:41:49
  TRACK 167 AUDIO
    TITLE "3:cjc085_1343"
    INDEX 01 06:42:37
  TRACK 168 AUDIO
    TITLE "0:"
    INDEX 01 06:47:12
  TRACK 169 AUDIO
    TITLE "4:cjc085_1344"
    INDEX 01 06:48:06
  TRACK 170 AUDIO
    TITLE "2:cjc085_1345"
    INDEX 01 06:50:28
  TRACK 171 AUDIO
    TITLE "0:"
    INDEX 01 06:56:17
  TRACK 172 AUDIO
    TITLE "3:cjc085_1346"
    INDEX 01 06:56:64
  TRACK 173 AUDIO
    TITLE "0:"
    INDEX 01 07:01:54
  TRACK 174 AUDIO
    TITLE "4:cjc085_1347"
    INDEX 01 07:02:37
  TRACK 175 AUDIO
    TITLE "2:cjc085_1348"
    INDEX 01 07:05:28
  TRACK 176 AUDIO
    TITLE "0:"
    INDEX 01 07:10:68
  TRACK 177 AUDIO
    TITLE "3:cjc085_1349"
    INDEX 01 07:11:23
  TRACK 178 AUDIO
    TITLE "0:"
    INDEX 01 07:14:72
  TRACK 179 AUDIO
    TITLE "4:cjc085_1350"
    INDEX 01 07:15:56
  TRACK 180 AUDIO
    TITLE "2:cjc085_1351"
    INDEX 01 07:18:11
  TRACK 181 AUDIO
    TITLE "0:"
    INDEX 01 07:22:38
  TRACK 182 AUDIO
    TITLE "3:cjc085_1352"
    INDEX 01 07:23:38
  TRACK 183 AUDIO
    TITLE "0:"
    INDEX 01 07:28:03
  TRACK 184 AUDIO
    TITLE "4:cjc085_1353"
    INDEX 01 07:28:62
  TRACK 185 AUDIO
    TITLE "2:cjc085_1354"
    INDEX 01 07:31:35
  TRACK 186 AUDIO
    TITLE "0:"
    INDEX 01 07:36:73
  TRACK 187 AUDIO
    TITLE "3:cjc085_1355"
    INDEX 01 07:37:32
  TRACK 188 AUDIO
    TITLE "0:"
    INDEX 01 07:43:01
  TRACK 189 AUDIO
    TITLE "4:cjc085_1356"
    INDEX 01 07:44:12
  TRACK 190 AUDIO
    TITLE "2:cjc085_1357"
    INDEX 01 07:46:39
  TRACK 191 AUDIO
    TITLE "0:"
    INDEX 01 07:51:26
  TRACK 192 AUDIO
    TITLE "3:cjc085_1358"
    INDEX 01 07:51:67
  TRACK 193 AUDIO
    TITLE "0:"
    INDEX 01 07:55:38
  TRACK 194 AUDIO
    TITLE "4:cjc085_1359"
    INDEX 01 07:56:72
  TRACK 195 AUDIO
    TITLE "2:cjc085_1360"
    INDEX 01 07:59:22
  TRACK 196 AUDIO
    TITLE "0:"
    INDEX 01 08:04:11
  TRACK 197 AUDIO
    TITLE "3:cjc085_1361"
    INDEX 01 08:05:16
  TRACK 198 AUDIO
    TITLE "0:"
    INDEX 01 08:08:40
  TRACK 199 AUDIO
    TITLE "4:cjc085_1362"
    INDEX 01 08:09:12
  TRACK 200 AUDIO
    TITLE "2:cjc085_1363"
    INDEX 01 08:12:12
  TRACK 201 AUDIO
    TITLE "0:"
    INDEX 01 08:17:70
  TRACK 202 AUDIO
    TITLE "3:cjc085_1364"
    INDEX 01 08:18:54
  TRACK 203 AUDIO
    TITLE "0:"
    INDEX 01 08:23:01
  TRACK 204 AUDIO
    TITLE "4:cjc085_1365"
    INDEX 01 08:23:63
  TRACK 205 AUDIO
    TITLE "2:cjc085_1366"
    INDEX 01 08:26:26
  TRACK 206 AUDIO
    TITLE "0:"
    INDEX 01 08:32:56
  TRACK 207 AUDIO
    TITLE "3:cjc085_1367"
    INDEX 01 08:33:19
  TRACK 208 AUDIO
    TITLE "0:"
    INDEX 01 08:36:64
  TRACK 209 AUDIO
    TITLE "4:cjc085_1368"
    INDEX 01 08:37:56
  TRACK 210 AUDIO
    TITLE "2:cjc085_1369"
    INDEX 01 08:40:54
  TRACK 211 AUDIO
    TITLE "0:"
    INDEX 01 08:45:61
  TRACK 212 AUDIO
    TITLE "3:cjc085_1370"
    INDEX 01 08:46:39
  TRACK 213 AUDIO
    TITLE "0:"
    INDEX 01 08:51:03
  TRACK 214 AUDIO
    TITLE "4:cjc085_1371"
    INDEX 01 08:51:60
  TRACK 215 AUDIO
    TITLE "2:cjc085_1372"
    INDEX 01 08:54:25
  TRACK 216 AUDIO
    TITLE "0:"
    INDEX 01 08:57:66
  TRACK 217 AUDIO
    TITLE "3:cjc085_1373"
    INDEX 01 08:58:22
  TRACK 218 AUDIO
    TITLE "0:"
    INDEX 01 09:01:44
  TRACK 219 AUDIO
    TITLE "4:cjc085_1374"
    INDEX 01 09:02:40
  TRACK 220 AUDIO
    TITLE "2:cjc085_1375"
    INDEX 01 09:05:01
  TRACK 221 AUDIO
    TITLE "0:"
    INDEX 01 09:07:43
  TRACK 222 AUDIO
    TITLE "3:cjc085_1376"
    INDEX 01 09:08:11
  TRACK 223 AUDIO
    TITLE "0:"
    INDEX 01 09:11:00
  TRACK 224 AUDIO
    TITLE "4:cjc085_1377"
    INDEX 01 09:11:62
  TRACK 225 AUDIO
    TITLE "2:cjc085_1378"
    INDEX 01 09:14:47
  TRACK 226 AUDIO
    TITLE "0:"
    INDEX 01 09:19:19
  TRACK 227 AUDIO
    TITLE "3:cjc085_1379"
    INDEX 01 09:19:28
  TRACK 228 AUDIO
    TITLE "0:"
    INDEX 01 09:23:16
  TRACK 229 AUDIO
    TITLE "4:cjc085_1380"
    INDEX 01 09:24:73
  TRACK 230 AUDIO
    TITLE "2:cjc085_1381"
    INDEX 01 09:27:24
  TRACK 231 AUDIO
    TITLE "0:"
    INDEX 01 09:31:65
  TRACK 232 AUDIO
    TITLE "3:cjc085_1382"
    INDEX 01 09:32:27
  TRACK 233 AUDIO
    TITLE "0:"
    INDEX 01 09:36:62
  TRACK 234 AUDIO
    TITLE "4:cjc085_1383"
    INDEX 01 09:37:58
  TRACK 235 AUDIO
    TITLE "2:cjc085_1384"
    INDEX 01 09:40:31
  TRACK 236 AUDIO
    TITLE "0:"
    INDEX 01 09:44:26
  TRACK 237 AUDIO
    TITLE "3:cjc085_1385"
    INDEX 01 09:44:54
  TRACK 238 AUDIO
    TITLE "0:"
    INDEX 01 09:48:61
  TRACK 239 AUDIO
    TITLE "4:cjc085_1386"
    INDEX 01 09:49:26
  TRACK 240 AUDIO
    TITLE "2:cjc085_1387"
    INDEX 01 09:51:60
  TRACK 241 AUDIO
    TITLE "0:"
    INDEX 01 09:57:11
  TRACK 242 AUDIO
    TITLE "3:cjc085_1388"
    INDEX 01 09:57:35
  TRACK 243 AUDIO
    TITLE "0:"
    INDEX 01 10:01:39
